<mxfile host="app.diagrams.net" modified="2023-10-22T20:52:41.129Z" agent="Mozilla/5.0 (Windows NT 10.0; Win64; x64; rv:109.0) Gecko/20100101 Firefox/118.0" etag="gug8SbjYtLCyRhmvE3q_" version="22.0.6" type="github">
  <diagram id="R2lEEEUBdFMjLlhIrx00" name="Page-1">
    <mxGraphModel dx="794" dy="380" grid="1" gridSize="10" guides="1" tooltips="1" connect="1" arrows="1" fold="1" page="1" pageScale="1" pageWidth="850" pageHeight="1100" math="0" shadow="0" extFonts="Permanent Marker^https://fonts.googleapis.com/css?family=Permanent+Marker">
      <root>
        <mxCell id="0" />
        <mxCell id="1" parent="0" />
        <mxCell id="x_4Qrq9HmAXU6ARK1Lcc-2" value="&lt;h1&gt;Zadatak&lt;/h1&gt;&lt;p&gt;&lt;/p&gt;&lt;p&gt;Nacrtati ER model za videoteku u nastavku:&lt;/p&gt;&lt;p&gt;Videoteka JednostavniFilm doo bi htjela unaprijediti svojeposlovanje. Do sada su klijenti sa sobom imali kartica na kojima su pisalipodaci o njima i to ime, prezime, datum rođenja, adresa i broj telefona. Napoleđini kartice su se pisali posudbe i to datum posude i datum vraćanja filma.Film je bio opisan nekom šifrom i nazivom. &lt;/p&gt;&lt;p&gt;Htjeli bi ubuduće osim naziva filma i pamtiti njegov žanr te njegovog redatelja&lt;/p&gt;" style="text;html=1;strokeColor=none;fillColor=none;spacing=5;spacingTop=-20;whiteSpace=wrap;overflow=hidden;rounded=0;" parent="1" vertex="1">
          <mxGeometry x="90" y="260" width="190" height="300" as="geometry" />
        </mxCell>
      </root>
    </mxGraphModel>
  </diagram>
</mxfile>
